<svg width="24" height="25" viewBox="0 0 24 25" fill="none" xmlns="http://www.w3.org/2000/svg">
<path d="M22.0101 16.0633L22.0109 16.0659L22.0108 16.0659C22.1775 16.6909 21.8185 17.3695 21.1849 17.492L15.2478 19.0567C15.3215 20.2232 14.569 21.3123 13.4004 21.6164C12.2322 21.9433 11.0181 21.3702 10.5099 20.3297L9.53045 20.5967L9.5294 20.597C9.32189 20.6488 9.10621 20.5453 9.05186 20.3293C9.05182 20.3292 9.05178 20.329 9.05174 20.3288L5.05577 5.61525L3.15673 6.0901L3.1446 6.04159L3.15673 6.0901C2.66755 6.21241 2.13076 5.91954 1.98422 5.40645M22.0101 16.0633L2.03229 5.39272M22.0101 16.0633L22.0101 16.0631L21.57 14.4419C21.57 14.4417 21.5699 14.4416 21.5699 14.4414C21.5155 14.2254 21.2998 14.122 21.0923 14.1737L21.0918 14.1739L19.448 14.6017L17.6072 7.76779C17.6071 7.76765 17.6071 7.76751 17.6071 7.76737C17.5527 7.55131 17.337 7.44781 17.1295 7.4996L17.1287 7.49982L13.5385 8.46024L12.5553 4.82467C12.5553 4.82451 12.5552 4.82435 12.5552 4.8242C12.5009 4.60817 12.2852 4.50469 12.0776 4.55648L12.0771 4.55663L7.44402 5.77223M22.0101 16.0633L7.44402 5.77223M1.98422 5.40645L2.03229 5.39272M1.98422 5.40645C1.98422 5.40645 1.98422 5.40646 1.98422 5.40646L2.03229 5.39272M1.98422 5.40645C1.83689 4.89075 2.1568 4.37818 2.66743 4.23233L2.6691 4.23186L2.66911 4.23189L6.39933 3.30521M2.03229 5.39272C1.89329 4.90615 2.19443 4.41943 2.68117 4.28041L6.41218 3.35353M6.39933 3.30521C6.39904 3.30529 6.39876 3.30537 6.39847 3.30545L6.41218 3.35353M6.39933 3.30521L6.40013 3.30501L6.41218 3.35353M6.39933 3.30521C6.58706 3.25219 6.80087 3.35933 6.85452 3.57279L6.85441 3.57239L6.80612 3.58534M6.41218 3.35353C6.57431 3.3073 6.75973 3.39993 6.80612 3.58534M6.80612 3.58534L6.85462 3.5732M6.80612 3.58534L7.4086 5.83322L6.85462 3.5732M6.85462 3.5732L7.44402 5.77223M6.85462 3.5732L7.44402 5.77223M5.69542 5.0786L5.69549 5.07858L5.6946 5.0759C5.64275 4.92054 5.48727 4.7868 5.32274 4.7868H5.25323V4.78532L5.24134 4.78824L2.97033 5.34446L2.97032 5.34442L2.96849 5.34494C2.90029 5.36441 2.84743 5.35276 2.80872 5.32731C2.76886 5.30111 2.73974 5.25738 2.72642 5.20652C2.69961 5.10414 2.73895 4.99138 2.85673 4.95444L6.21439 4.10935L9.86277 17.5483C9.86281 17.5485 9.86285 17.5486 9.8629 17.5488C9.91723 17.7648 10.1329 17.8683 10.3404 17.8165L10.3409 17.8164L10.8071 17.6954C10.3552 18.2407 10.1772 18.9623 10.272 19.6303L9.69189 19.7704L5.69542 5.0786ZM11.0947 19.7924L11.0947 19.7924C10.8018 18.8461 11.3422 17.8784 12.2878 17.6307L12.2883 17.6306C13.2797 17.3603 14.2478 18.0141 14.4276 18.9132L14.4276 18.9132L14.4278 18.9141C14.63 19.8353 14.0466 20.6691 13.1885 20.9177C12.287 21.1655 11.3645 20.6695 11.0947 19.7924ZM20.9754 16.7926L15.0636 18.3567C14.8148 17.7186 14.2793 17.2014 13.6323 16.9618C14.256 16.7964 14.9237 16.6196 15.6118 16.4374C17.3835 15.9681 19.2904 15.4631 20.93 15.0249L21.2646 16.2743L21.2647 16.2745C21.3272 16.5037 21.2029 16.73 20.9764 16.7924C20.9761 16.7924 20.9759 16.7925 20.9757 16.7925L20.9754 16.7926ZM18.7254 14.8125L10.5026 16.9884L8.74443 10.5267L16.9672 8.35078L18.7254 14.8125ZM7.6553 6.5176L11.9152 5.3846L12.793 8.64822L8.53295 9.78122L7.6553 6.5176Z" fill="#5D6679" stroke="#5D6679" stroke-width="0.1"/>
</svg>
