<svg width="24" height="25" viewBox="0 0 24 25" fill="none" xmlns="http://www.w3.org/2000/svg">
<path d="M11.023 18.3548H9.64891C9.55735 18.3548 9.49622 18.4159 9.49622 18.5075C9.49622 18.599 9.55735 18.6602 9.64891 18.6602H11.023C11.1145 18.6602 11.1757 18.599 11.1757 18.5075C11.1757 18.4311 11.0994 18.3548 11.023 18.3548Z" fill="#5D6679"/>
<path d="M19.6773 3.34641C19.2276 2.89664 18.63 2.6492 17.9934 2.6492L6.56615 2.64893C5.92962 2.64893 5.33236 2.89636 4.88227 3.34613C4.43249 3.79591 4.18506 4.39346 4.18506 5.03002V20.2678C4.18506 20.9044 4.43249 21.5016 4.88227 21.9517C5.33204 22.4015 5.92959 22.6489 6.56615 22.6489H17.9949C18.6314 22.6489 19.2287 22.4015 19.6788 21.9517C20.1285 21.5019 20.376 20.9044 20.376 20.2678V5.03002C20.3748 4.39376 20.1274 3.79623 19.6776 3.34642L19.6773 3.34641ZM19.4229 20.2686C19.4229 21.0566 18.7825 21.697 17.9946 21.697H6.56585C5.77788 21.697 5.13747 21.0566 5.13747 20.2686V5.03008C5.13747 4.24211 5.7779 3.60171 6.56585 3.60171H17.9946C18.7825 3.60171 19.4229 4.24214 19.4229 5.03008V20.2686Z" fill="#5D6679"/>
<path d="M10.0385 11.36L8.47036 12.9284L7.85498 12.3131C7.66934 12.1274 7.36707 12.1274 7.18171 12.3131C6.99607 12.4987 6.99607 12.801 7.18171 12.9863L8.13442 13.939C8.22431 14.0289 8.34483 14.0787 8.47147 14.0787C8.59811 14.0787 8.71891 14.0289 8.80853 13.939L10.7136 12.0339C10.8993 11.8483 10.8993 11.546 10.7136 11.3606C10.528 11.1747 10.2238 11.1736 10.0384 11.3601L10.0385 11.36Z" fill="#5D6679"/>
<path d="M10.0385 16.1211L8.47036 17.6892L7.85498 17.0738C7.66934 16.8881 7.36707 16.8881 7.18171 17.0738C6.99607 17.2594 6.99607 17.5617 7.18171 17.7471L8.13442 18.6998C8.22431 18.7897 8.34483 18.8395 8.47147 18.8395C8.59811 18.8395 8.71891 18.7897 8.80853 18.6998L10.7136 16.7946C10.8993 16.609 10.8993 16.3067 10.7136 16.1214C10.528 15.9354 10.2238 15.9354 10.0384 16.1211L10.0385 16.1211Z" fill="#5D6679"/>
<path d="M10.0385 6.59761L8.47036 8.16571L7.85498 7.55033C7.66934 7.36469 7.36707 7.36469 7.18171 7.55033C6.99607 7.73598 6.99607 8.03824 7.18171 8.2236L8.13442 9.17631C8.22431 9.2662 8.34483 9.31602 8.47147 9.31602C8.59811 9.31602 8.71891 9.2662 8.80853 9.17631L10.7136 7.27119C10.8993 7.08554 10.8993 6.78328 10.7136 6.59792C10.528 6.41227 10.2238 6.41227 10.0384 6.59764L10.0385 6.59761Z" fill="#5D6679"/>
<path d="M17.0424 12.173H12.2803C12.017 12.173 11.8043 12.3865 11.8043 12.649C11.8043 12.9114 12.0178 13.1249 12.2803 13.1249H17.0424C17.3057 13.1249 17.5184 12.9114 17.5184 12.649C17.5184 12.3857 17.3049 12.173 17.0424 12.173Z" fill="#5D6679"/>
<path d="M17.0424 17.8874H12.2803C12.017 17.8874 11.8043 18.1009 11.8043 18.3633C11.8043 18.6258 12.0178 18.8393 12.2803 18.8393H17.0424C17.3057 18.8393 17.5184 18.6258 17.5184 18.3633C17.5184 18.1009 17.3049 17.8874 17.0424 17.8874Z" fill="#5D6679"/>
<path d="M17.0424 7.41059H12.2803C12.017 7.41059 11.8043 7.62407 11.8043 7.88653C11.8043 8.14899 12.0178 8.36247 12.2803 8.36247H17.0424C17.3057 8.36247 17.5184 8.14899 17.5184 7.88653C17.5184 7.62407 17.3049 7.41059 17.0424 7.41059Z" fill="#5D6679"/>
<path d="M11.023 19.4233H9.64891C9.55735 19.4233 9.49622 19.4844 9.49622 19.576C9.49622 19.6675 9.55735 19.7287 9.64891 19.7287H11.023C11.1145 19.7287 11.1757 19.6675 11.1757 19.576C11.1757 19.4844 11.0994 19.4233 11.023 19.4233Z" fill="#5D6679"/>
</svg>
